<svg width="622" height="122" viewBox="0 0 622 122" fill="none" xmlns="http://www.w3.org/2000/svg">
<path d="M159.44 33.24V89H152.16V33.24H159.44ZM193.208 44.36C198.541 44.36 202.861 45.9867 206.168 49.24C209.474 52.44 211.128 57.08 211.128 63.16V89H203.928V64.2C203.928 59.8267 202.834 56.4933 200.648 54.2C198.461 51.8533 195.474 50.68 191.688 50.68C187.848 50.68 184.781 51.88 182.488 54.28C180.248 56.68 179.128 60.1733 179.128 64.76V89H171.848V45.16H179.128V51.4C180.568 49.16 182.514 47.4267 184.968 46.2C187.474 44.9733 190.221 44.36 193.208 44.36ZM220.299 67C220.299 62.4667 221.206 58.52 223.019 55.16C224.833 51.7467 227.339 49.1067 230.539 47.24C233.793 45.3733 237.499 44.44 241.659 44.44C247.046 44.44 251.473 45.7467 254.939 48.36C258.459 50.9733 260.779 54.6 261.899 59.24H254.059C253.313 56.5733 251.846 54.4667 249.659 52.92C247.526 51.3733 244.859 50.6 241.659 50.6C237.499 50.6 234.139 52.04 231.579 54.92C229.019 57.7467 227.739 61.7733 227.739 67C227.739 72.28 229.019 76.36 231.579 79.24C234.139 82.12 237.499 83.56 241.659 83.56C244.859 83.56 247.526 82.8133 249.659 81.32C251.793 79.8267 253.259 77.6933 254.059 74.92H261.899C260.726 79.4 258.379 83 254.859 85.72C251.339 88.3867 246.939 89.72 241.659 89.72C237.499 89.72 233.793 88.7867 230.539 86.92C227.339 85.0533 224.833 82.4133 223.019 79C221.206 75.5867 220.299 71.5867 220.299 67ZM303.133 33.24V39.16H278.893V57.96H298.573V63.88H278.893V89H271.613V33.24H303.133ZM315.686 38.04C314.299 38.04 313.126 37.56 312.166 36.6C311.206 35.64 310.726 34.4667 310.726 33.08C310.726 31.6933 311.206 30.52 312.166 29.56C313.126 28.6 314.299 28.12 315.686 28.12C317.019 28.12 318.139 28.6 319.046 29.56C320.006 30.52 320.486 31.6933 320.486 33.08C320.486 34.4667 320.006 35.64 319.046 36.6C318.139 37.56 317.019 38.04 315.686 38.04ZM319.206 45.16V89H311.926V45.16H319.206ZM352.973 44.36C358.306 44.36 362.626 45.9867 365.933 49.24C369.24 52.44 370.893 57.08 370.893 63.16V89H363.693V64.2C363.693 59.8267 362.6 56.4933 360.413 54.2C358.226 51.8533 355.24 50.68 351.453 50.68C347.613 50.68 344.546 51.88 342.253 54.28C340.013 56.68 338.893 60.1733 338.893 64.76V89H331.613V45.16H338.893V51.4C340.333 49.16 342.28 47.4267 344.733 46.2C347.24 44.9733 349.986 44.36 352.973 44.36ZM380.065 66.92C380.065 62.44 380.972 58.52 382.785 55.16C384.598 51.7467 387.078 49.1067 390.225 47.24C393.425 45.3733 396.972 44.44 400.865 44.44C404.705 44.44 408.038 45.2667 410.865 46.92C413.692 48.5733 415.798 50.6533 417.185 53.16V45.16H424.545V89H417.185V80.84C415.745 83.4 413.585 85.5333 410.705 87.24C407.878 88.8933 404.572 89.72 400.785 89.72C396.892 89.72 393.372 88.76 390.225 86.84C387.078 84.92 384.598 82.2267 382.785 78.76C380.972 75.2933 380.065 71.3467 380.065 66.92ZM417.185 67C417.185 63.6933 416.518 60.8133 415.185 58.36C413.852 55.9067 412.038 54.04 409.745 52.76C407.505 51.4267 405.025 50.76 402.305 50.76C399.585 50.76 397.105 51.4 394.865 52.68C392.625 53.96 390.838 55.8267 389.505 58.28C388.172 60.7333 387.505 63.6133 387.505 66.92C387.505 70.28 388.172 73.2133 389.505 75.72C390.838 78.1733 392.625 80.0667 394.865 81.4C397.105 82.68 399.585 83.32 402.305 83.32C405.025 83.32 407.505 82.68 409.745 81.4C412.038 80.0667 413.852 78.1733 415.185 75.72C416.518 73.2133 417.185 70.3067 417.185 67ZM458.208 44.36C463.541 44.36 467.861 45.9867 471.168 49.24C474.474 52.44 476.128 57.08 476.128 63.16V89H468.928V64.2C468.928 59.8267 467.834 56.4933 465.648 54.2C463.461 51.8533 460.474 50.68 456.688 50.68C452.848 50.68 449.781 51.88 447.488 54.28C445.248 56.68 444.128 60.1733 444.128 64.76V89H436.848V45.16H444.128V51.4C445.568 49.16 447.514 47.4267 449.968 46.2C452.474 44.9733 455.221 44.36 458.208 44.36ZM485.299 67C485.299 62.4667 486.206 58.52 488.019 55.16C489.833 51.7467 492.339 49.1067 495.539 47.24C498.793 45.3733 502.499 44.44 506.659 44.44C512.046 44.44 516.473 45.7467 519.939 48.36C523.459 50.9733 525.779 54.6 526.899 59.24H519.059C518.313 56.5733 516.846 54.4667 514.659 52.92C512.526 51.3733 509.859 50.6 506.659 50.6C502.499 50.6 499.139 52.04 496.579 54.92C494.019 57.7467 492.739 61.7733 492.739 67C492.739 72.28 494.019 76.36 496.579 79.24C499.139 82.12 502.499 83.56 506.659 83.56C509.859 83.56 512.526 82.8133 514.659 81.32C516.793 79.8267 518.259 77.6933 519.059 74.92H526.899C525.726 79.4 523.379 83 519.859 85.72C516.339 88.3867 511.939 89.72 506.659 89.72C502.499 89.72 498.793 88.7867 495.539 86.92C492.339 85.0533 489.833 82.4133 488.019 79C486.206 75.5867 485.299 71.5867 485.299 67ZM576.613 65.4C576.613 66.7867 576.533 68.2533 576.373 69.8H541.333C541.6 74.12 543.066 77.5067 545.733 79.96C548.453 82.36 551.733 83.56 555.573 83.56C558.72 83.56 561.333 82.84 563.413 81.4C565.546 79.9067 567.04 77.9333 567.893 75.48H575.733C574.56 79.6933 572.213 83.1333 568.693 85.8C565.173 88.4133 560.8 89.72 555.573 89.72C551.413 89.72 547.68 88.7867 544.373 86.92C541.12 85.0533 538.56 82.4133 536.693 79C534.826 75.5333 533.893 71.5333 533.893 67C533.893 62.4667 534.8 58.4933 536.613 55.08C538.426 51.6667 540.96 49.0533 544.213 47.24C547.52 45.3733 551.306 44.44 555.573 44.44C559.733 44.44 563.413 45.3467 566.613 47.16C569.813 48.9733 572.266 51.48 573.973 54.68C575.733 57.8267 576.613 61.4 576.613 65.4ZM569.093 63.88C569.093 61.1067 568.48 58.7333 567.253 56.76C566.026 54.7333 564.346 53.2133 562.213 52.2C560.133 51.1333 557.813 50.6 555.253 50.6C551.573 50.6 548.426 51.7733 545.813 54.12C543.253 56.4667 541.786 59.72 541.413 63.88H569.093ZM601.743 89.72C598.383 89.72 595.369 89.16 592.703 88.04C590.036 86.8667 587.929 85.2667 586.383 83.24C584.836 81.16 583.983 78.7867 583.823 76.12H591.343C591.556 78.3067 592.569 80.0933 594.383 81.48C596.249 82.8667 598.676 83.56 601.663 83.56C604.436 83.56 606.623 82.9467 608.223 81.72C609.823 80.4933 610.623 78.9467 610.623 77.08C610.623 75.16 609.769 73.7467 608.063 72.84C606.356 71.88 603.716 70.9467 600.143 70.04C596.889 69.1867 594.223 68.3333 592.143 67.48C590.116 66.5733 588.356 65.2667 586.863 63.56C585.423 61.8 584.703 59.5067 584.703 56.68C584.703 54.44 585.369 52.3867 586.703 50.52C588.036 48.6533 589.929 47.1867 592.383 46.12C594.836 45 597.636 44.44 600.783 44.44C605.636 44.44 609.556 45.6667 612.543 48.12C615.529 50.5733 617.129 53.9333 617.343 58.2H610.063C609.903 55.9067 608.969 54.0667 607.263 52.68C605.609 51.2933 603.369 50.6 600.543 50.6C597.929 50.6 595.849 51.16 594.303 52.28C592.756 53.4 591.983 54.8667 591.983 56.68C591.983 58.12 592.436 59.32 593.343 60.28C594.303 61.1867 595.476 61.9333 596.863 62.52C598.303 63.0533 600.276 63.6667 602.783 64.36C605.929 65.2133 608.489 66.0667 610.463 66.92C612.436 67.72 614.116 68.9467 615.503 70.6C616.943 72.2533 617.689 74.4133 617.743 77.08C617.743 79.48 617.076 81.64 615.743 83.56C614.409 85.48 612.516 87 610.063 88.12C607.663 89.1867 604.889 89.72 601.743 89.72Z" fill="url(#paint0_linear)"/>
<path d="M102.363 103.407C113.678 92.0487 120.022 76.6632 120 60.6306C119.988 59.641 119.587 58.6959 118.883 58.0005C118.178 57.3046 117.229 56.9149 116.239 56.9149C115.249 56.9149 114.3 57.3046 113.596 58.0005C112.891 58.6959 112.49 59.641 112.478 60.6306C112.494 74.6808 106.932 88.1635 97.0147 98.1161C92.2003 103.059 86.4446 106.987 80.0869 109.67C73.7297 112.352 66.8994 113.734 59.9994 113.734C53.0994 113.734 46.2691 112.352 39.9118 109.67C33.5545 106.987 27.7988 103.059 22.9842 98.1161C13.08 88.1536 7.52088 74.6764 7.52088 60.6284C7.52088 46.58 13.08 33.1028 22.9842 23.1401C27.7707 18.2353 33.4832 14.3294 39.7906 11.649C46.0979 8.96854 52.8746 7.56681 59.7278 7.5251C61.191 7.57093 62.5784 8.18667 63.5943 9.24093C64.6102 10.2951 65.1739 11.7045 65.1651 13.1685C65.1569 14.6325 64.5767 16.0352 63.5488 17.0776C62.5208 18.12 61.1262 18.7194 59.6625 18.7483C59.5269 18.7485 59.3913 18.7561 59.2569 18.7708C48.8305 19.1065 38.9375 23.46 31.6465 30.9209C23.9467 38.672 19.6253 49.154 19.6253 60.0795C19.6253 71.0052 23.9467 81.4869 31.6465 89.2381C35.4082 93.0915 39.9024 96.1535 44.8649 98.244C49.8274 100.334 55.1582 101.411 60.5428 101.411C65.9274 101.411 71.2583 100.334 76.2209 98.244C81.1829 96.1535 85.6773 93.0915 89.4391 89.2381C97.1508 81.4951 101.474 71.008 101.459 60.0795C101.475 58.3584 101.149 56.6504 100.501 55.0555C99.8532 53.4608 98.8961 52.01 97.6842 50.7872C96.4724 49.5644 95.0306 48.5937 93.4417 47.9313C91.8528 47.2688 90.1487 46.9278 88.427 46.9278C86.7053 46.9278 85.0012 47.2688 83.4123 47.9313C81.8234 48.5937 80.3816 49.5644 79.1698 50.7872C77.9579 52.01 77.0008 53.4608 76.3526 55.0555C75.705 56.6504 75.3795 58.3584 75.3954 60.0795C75.3954 60.1893 75.4026 60.2925 75.4113 60.3978C75.4026 60.5032 75.3954 60.6086 75.3954 60.7162C75.4201 63.7172 74.5524 66.6579 72.9026 69.1655C71.2533 71.6726 68.8961 73.633 66.1305 74.7988C63.3649 75.964 60.315 76.2817 57.3689 75.7115C54.4222 75.1407 51.7116 73.7082 49.5808 71.5947C47.4499 69.4811 45.9949 66.7825 45.4003 63.8407C44.8058 60.8989 45.0985 57.8468 46.2413 55.0719C47.384 52.2966 49.3255 49.9235 51.8191 48.2535C54.3128 46.5835 57.2465 45.6919 60.2475 45.6918C60.7453 45.6978 61.2393 45.6049 61.7008 45.4187C62.1624 45.2323 62.5823 44.9563 62.9363 44.6064C63.2903 44.2566 63.5718 43.84 63.7634 43.3807C63.9555 42.9214 64.0543 42.4286 64.0543 41.9309C64.0543 41.4331 63.9555 40.9403 63.7634 40.481C63.5718 40.0217 63.2903 39.6051 62.9363 39.2553C62.5823 38.9054 62.1624 38.6294 61.7008 38.4431C61.2393 38.2568 60.7453 38.1639 60.2475 38.17C55.7937 38.1947 51.4468 39.538 47.7554 42.0305C44.0641 44.523 41.1937 48.0529 39.5064 52.175C37.8191 56.2969 37.3904 60.8265 38.2745 65.1919C39.1586 69.5574 41.3158 73.5628 44.4741 76.7038C47.6322 79.8442 51.6499 81.9792 56.0204 82.8392C60.3902 83.6987 64.9176 83.2448 69.03 81.5346C73.1424 79.8245 76.6566 76.9348 79.1286 73.2296C81.6006 69.5244 82.9194 65.17 82.9194 60.7162C82.9194 60.6064 82.9123 60.5032 82.9035 60.3978C82.9123 60.2925 82.9194 60.1871 82.9194 60.0795C82.9046 59.3468 83.0363 58.6185 83.3069 57.9369C83.5769 57.2558 83.9809 56.635 84.4935 56.112C85.0066 55.5884 85.6191 55.1724 86.2948 54.8886C86.9704 54.6049 87.6965 54.4587 88.4292 54.4587C89.1619 54.4587 89.888 54.6049 90.5636 54.8886C91.2392 55.1724 91.8517 55.5884 92.3649 56.112C92.8775 56.635 93.2815 57.2558 93.5515 57.9369C93.8221 58.6185 93.9538 59.3468 93.939 60.0795C93.9489 69.0267 90.4072 77.6116 84.0917 83.949C81.0298 87.0949 77.3685 89.5949 73.3241 91.3023C69.2797 93.0097 64.934 93.889 60.5439 93.889C56.1543 93.889 51.8088 93.0097 47.7643 91.3023C43.72 89.5949 40.0587 87.0949 36.9966 83.949C30.6896 77.6061 27.1495 69.0245 27.1495 60.0795C27.1495 51.1346 30.6896 42.5531 36.9966 36.2101C40.0611 33.0682 43.7225 30.5704 47.7658 28.8635C51.8092 27.1565 56.1527 26.2748 60.5417 26.2701C60.8792 26.2691 61.2151 26.2227 61.5406 26.1318C64.7425 25.6407 67.6497 23.9848 69.7056 21.4818C71.7616 18.9787 72.8208 15.8047 72.6803 12.5687C72.5398 9.33269 71.2089 6.2625 68.9438 3.94712C66.6788 1.63171 63.6388 0.234139 60.4067 0.0225025C60.2717 0.00779645 60.1356 0.000284901 59.9994 0C59.9237 0 59.8485 0 59.7728 0C59.7355 0 59.6992 0 59.663 0C59.6268 0 59.5895 0.00438768 59.5532 0.00548535C51.7345 0.0669747 44.0053 1.67554 36.8112 4.73845C29.617 7.80133 23.1004 12.258 17.6369 17.8515C6.34022 29.2222 0 44.5997 0 60.6284C0 76.6566 6.34022 92.0339 17.6369 103.405C23.1509 109.055 29.7395 113.546 37.0149 116.611C44.2904 119.677 52.1056 121.256 60.0005 121.256C67.8956 121.256 75.7104 119.677 82.9864 116.611C90.2618 113.546 96.85 109.055 102.364 103.405L102.363 103.407Z" fill="url(#paint1_linear)"/>
<defs>
<linearGradient id="paint0_linear" x1="384" y1="1" x2="384" y2="121" gradientUnits="userSpaceOnUse">
<stop stop-color="#E72452"/>
<stop offset="1" stop-color="#41287B"/>
</linearGradient>
<linearGradient id="paint1_linear" x1="17.4" y1="103.189" x2="93.6569" y2="28.5617" gradientUnits="userSpaceOnUse">
<stop stop-color="#41287B"/>
<stop offset="0.123" stop-color="#462779"/>
<stop offset="0.284" stop-color="#572775"/>
<stop offset="0.465" stop-color="#72266E"/>
<stop offset="0.663" stop-color="#982565"/>
<stop offset="0.87" stop-color="#C82459"/>
<stop offset="0.99" stop-color="#E72452"/>
</linearGradient>
</defs>
</svg>
